<svg width="200" height="200" viewBox="0 0 200 200" fill="none" xmlns="http://www.w3.org/2000/svg">
<rect x="2" y="2" width="196" height="196" rx="98" fill="white"/>
<rect x="2" y="2" width="196" height="196" rx="98" stroke="black" stroke-width="4"/>
<g clip-path="url(#clip0_1_14)">
<path d="M118.363 113.867C109.263 109.208 97.4542 105.417 83.75 105.417C70.0458 105.417 58.2375 109.208 49.1375 113.867C43.7208 116.629 40.4167 122.208 40.4167 128.275V143.333H127.083V128.275C127.083 122.208 123.779 116.629 118.363 113.867ZM83.75 100C95.7208 100 105.417 90.3042 105.417 78.3333C105.417 66.3625 95.7208 56.6667 83.75 56.6667C71.7792 56.6667 62.0833 66.3625 62.0833 78.3333C62.0833 90.3042 71.7792 100 83.75 100ZM143.333 83.75V72.9167C143.333 69.9375 140.896 67.5 137.917 67.5C134.938 67.5 132.5 69.9375 132.5 72.9167V83.75H121.667C118.688 83.75 116.25 86.1875 116.25 89.1667C116.25 92.1459 118.688 94.5834 121.667 94.5834H132.5V105.417C132.5 108.396 134.938 110.833 137.917 110.833C140.896 110.833 143.333 108.396 143.333 105.417V94.5834H154.167C157.146 94.5834 159.583 92.1459 159.583 89.1667C159.583 86.1875 157.146 83.75 154.167 83.75H143.333Z" fill="black"/>
</g>
<defs>
<clipPath id="clip0_1_14">
<rect width="130" height="130" fill="white" transform="translate(35 35)"/>
</clipPath>
</defs>
</svg>
