<svg width="200" height="200" viewBox="0 0 200 200" fill="none" xmlns="http://www.w3.org/2000/svg">
<rect x="2" y="2" width="196" height="196" rx="98" fill="white"/>
<rect x="2" y="2" width="196" height="196" rx="98" stroke="#18181B" stroke-width="4"/>
<path d="M100 100C115.884 100 128.75 87.1344 128.75 71.25C128.75 55.3656 115.884 42.5 100 42.5C84.1156 42.5 71.25 55.3656 71.25 71.25C71.25 87.1344 84.1156 100 100 100ZM100 114.375C80.8094 114.375 42.5 124.006 42.5 143.125V150.312C42.5 154.266 45.7344 157.5 49.6875 157.5H150.312C154.266 157.5 157.5 154.266 157.5 150.312V143.125C157.5 124.006 119.191 114.375 100 114.375Z" fill="black"/>
</svg>
